PathFileType	4	(X/Y/Z)	D:\Documents\paper\Opensim\Pipline\Result\suihongtao\30DJ0001\original_data\suihongtao_30DJ0001_static.trc	
DataRate	CameraRate	NumFrames	NumMarkers	Units	OrigDataRate	OrigDataStartFrame	OrigNumFrames	
200	200	11	27	mm	200	138	1108	
Frame#	Time	Top.Head			L.Acromium			R.Acromium			Sternum			L.ASIS			R.ASIS			L.PSIS			R.PSIS			V.Sacral			L.Thigh.Front			L.Knee.Lat			L.Knee.Med			L.Shank.Front			L.Ankle.Lat			L.Ankle.Med			L.Heel			L.Toe.Lat			L.Toe.Tip			R.Thigh.Front			R.Knee.Lat			R.Knee.Med			R.Shank.Front			R.Ankle.Lat			R.Ankle.Med			R.Heel			R.Toe.Lat			R.Toe.Tip
		X1	Y1	Z1	X2	Y2	Z2	X3	Y3	Z3	X4	Y4	Z4	X5	Y5	Z5	X6	Y6	Z6	X7	Y7	Z7	X8	Y8	Z8	X9	Y9	Z9	X10	Y10	Z10	X11	Y11	Z11	X12	Y12	Z12	X13	Y13	Z13	X14	Y14	Z14	X15	Y15	Z15	X16	Y16	Z16	X17	Y17	Z17	X18	Y18	Z18	X19	Y19	Z19	X20	Y20	Z20	X21	Y21	Z21	X22	Y22	Z22	X23	Y23	Z23	X24	Y24	Z24	X25	Y25	Z25	X26	Y26	Z26	X27	Y27	Z27
139	0.690000	349.980994	1627.992261	-778.441130	205.439796	1313.015846	-646.858880	489.169499	1308.043116	-860.507367	296.452451	1301.309583	-830.929057	179.434988	892.401872	-761.487113	356.373730	893.346863	-915.646814	359.637744	910.805341	-663.317756	436.287508	905.881126	-722.073520	397.962232	908.343110	-692.695538	209.585715	536.620774	-758.243578	212.673915	447.781527	-637.845326	322.962167	424.306391	-701.293501	236.905505	379.277017	-696.028554	224.568595	86.624018	-617.159270	276.538277	102.657748	-684.236773	292.092763	48.017789	-599.032621	143.020765	32.751948	-694.634277	165.456198	55.414056	-758.136588	358.396178	528.229134	-856.634088	485.671551	441.735015	-834.603105	395.543263	423.377002	-749.724057	433.858869	375.404683	-827.933372	505.251023	89.756201	-811.230653	431.062936	99.806975	-774.080942	501.116149	44.734910	-728.421733	473.607363	34.789184	-903.127663	388.641078	49.595026	-902.547427	
140	0.695000	349.974520	1627.995502	-778.479701	205.433327	1313.023209	-646.888762	489.170433	1308.042514	-860.516394	296.453497	1301.305569	-830.947123	179.430719	892.401995	-761.493653	356.369631	893.346406	-915.645770	359.633937	910.807868	-663.323782	436.283288	905.890062	-722.072553	397.958259	908.348775	-692.698125	209.591083	536.610673	-758.239360	212.671729	447.775290	-637.843522	322.959398	424.310389	-701.295830	236.905407	379.269834	-696.029663	224.566337	86.613923	-617.166005	276.536552	102.674285	-684.247989	292.089547	48.013070	-599.032896	143.018457	32.749400	-694.637848	165.457148	55.412485	-758.133851	358.395988	528.234609	-856.637081	485.671444	441.736217	-834.598572	395.538521	423.382005	-749.727011	433.860248	375.414606	-827.938041	505.253927	89.751698	-811.235044	431.064194	99.804696	-774.084281	501.116560	44.736550	-728.425972	473.604854	34.786680	-903.132192	388.637084	49.594080	-902.550569	
141	0.700000	349.966368	1627.997176	-778.514555	205.428136	1313.031337	-646.916519	489.172278	1308.041783	-860.523608	296.452425	1301.304546	-830.966164	179.427650	892.401691	-761.498424	356.366527	893.345405	-915.644443	359.630618	910.809609	-663.330369	436.278332	905.896551	-722.076308	397.954201	908.352870	-692.703352	209.592502	536.603355	-758.238328	212.670300	447.768165	-637.838790	322.960367	424.307213	-701.293095	236.903485	379.260187	-696.026775	224.564782	86.603631	-617.168388	276.536287	102.694382	-684.260150	292.085767	48.006216	-599.029496	143.015930	32.745806	-694.636863	165.458987	55.407874	-758.127144	358.395709	528.239438	-856.638080	485.672472	441.739317	-834.593259	395.532681	423.389180	-749.727900	433.861047	375.424315	-827.939709	505.255467	89.741542	-811.234597	431.067570	99.800150	-774.084380	501.115567	44.735538	-728.432841	473.606482	34.782515	-903.132054	388.633976	49.591657	-902.549658	
142	0.705000	349.955735	1627.997051	-778.547795	205.425159	1313.040645	-646.940626	489.174291	1308.039595	-860.530346	296.450302	1301.305782	-830.986594	179.425945	892.402265	-761.502192	356.365385	893.343329	-915.645065	359.625513	910.809854	-663.335958	436.272151	905.898138	-722.084172	397.948633	908.353836	-692.710105	209.590551	536.600581	-758.240442	212.668155	447.763786	-637.833229	322.963649	424.300137	-701.287735	236.899922	379.252290	-696.021023	224.563846	86.596107	-617.166746	276.537392	102.713109	-684.270495	292.082257	47.999726	-599.023601	143.014498	32.742404	-694.631257	165.461867	55.401566	-758.119113	358.395683	528.242300	-856.637240	485.674311	441.742814	-834.587946	395.528454	423.396532	-749.725228	433.861758	375.432421	-827.938107	505.254798	89.728272	-811.230461	431.071336	99.796628	-774.083390	501.114577	44.732551	-728.439845	473.611973	34.777819	-903.128014	388.631688	49.588863	-902.544535	
143	0.710000	349.942714	1627.995589	-778.582915	205.423409	1313.050198	-646.961762	489.175505	1308.035312	-860.538061	296.448359	1301.307062	-831.008566	179.424508	892.404392	-761.506013	356.365552	893.339307	-915.648808	359.617827	910.808236	-663.340052	436.265162	905.894284	-722.093363	397.941330	908.351203	-692.716758	209.585137	536.601296	-758.245561	212.664276	447.763983	-637.829811	322.966174	424.291990	-701.282160	236.895233	379.249213	-696.016122	224.563684	86.592521	-617.164338	276.538966	102.723683	-684.276135	292.080205	47.996192	-599.017682	143.014229	32.740364	-694.624110	165.464854	55.395733	-758.113380	358.396586	528.242461	-856.635182	485.675359	441.745032	-834.583010	395.526390	423.401962	-749.720603	433.862508	375.437648	-827.934676	505.252148	89.716471	-811.225102	431.073835	99.797805	-774.083321	501.115089	44.729979	-728.444672	473.618816	34.773534	-903.122727	388.630302	49.586341	-902.537540	
144	0.715000	349.928472	1627.993651	-778.621737	205.420674	1313.058733	-646.981746	489.175136	1308.029176	-860.547305	296.446739	1301.305928	-831.031150	179.421876	892.407687	-761.510648	356.365905	893.332989	-915.654503	359.609454	910.805672	-663.342875	436.258790	905.887270	-722.101077	397.933948	908.346508	-692.722030	209.577404	536.602039	-758.252719	212.658758	447.768584	-637.830963	322.965395	424.284431	-701.277524	236.889765	379.251340	-696.016485	224.565030	86.592839	-617.164447	276.540316	102.723047	-684.276018	292.079909	47.996615	-599.014109	143.014553	32.740414	-694.619631	165.466712	55.392778	-758.112287	358.399071	528.239415	-856.632506	485.674708	441.744567	-834.578539	395.525273	423.404363	-749.716834	433.863134	375.439635	-827.931427	505.249209	89.709650	-811.220706	431.074643	99.804816	-774.085218	501.117553	44.729451	-728.447043	473.625082	34.769965	-903.118996	388.630698	49.584732	-902.532485	
145	0.720000	349.914599	1627.991629	-778.662996	205.414957	1313.066300	-647.002188	489.172929	1308.021956	-860.557843	296.445041	1301.301050	-831.052447	179.417354	892.412059	-761.516540	356.365904	893.324869	-915.659541	359.603306	910.804005	-663.344884	436.254567	905.880537	-722.105724	397.928737	908.342341	-692.725345	209.570370	536.600665	-758.259957	212.652547	447.776180	-637.837328	322.961392	424.278802	-701.274082	236.883819	379.256861	-696.023556	224.568501	86.596615	-617.167754	276.540947	102.712782	-684.271191	292.080591	48.000065	-599.014097	143.014894	32.743136	-694.620349	165.466499	55.394349	-758.115867	358.403161	528.233341	-856.630020	485.672779	441.741688	-834.575006	395.524195	423.404296	-749.715595	433.863656	375.438931	-827.929775	505.248037	89.708193	-811.218652	431.074233	99.814954	-774.089180	501.120950	44.730996	-728.448012	473.630756	34.768440	-903.118689	388.633789	49.584682	-902.532133	
146	0.725000	349.902353	1627.989748	-778.704123	205.405786	1313.073825	-647.024209	489.169055	1308.014099	-860.569228	296.443434	1301.293176	-831.071144	179.411622	892.417594	-761.523381	356.365381	893.315950	-915.662191	359.600863	910.804187	-663.346662	436.253417	905.877018	-722.106886	397.926950	908.340635	-692.726776	209.565413	536.598975	-758.265751	212.647052	447.784386	-637.847055	322.956479	424.276342	-701.272131	236.878201	379.262929	-696.034046	224.573697	86.602947	-617.172298	276.540510	102.697543	-684.264759	292.081776	48.005205	-599.017331	143.014868	32.748523	-694.625697	165.464056	55.399774	-758.122082	358.408384	528.225900	-856.628999	485.670411	441.738231	-834.572879	395.522369	423.403753	-749.717352	433.864320	375.435138	-827.929466	505.249154	89.710211	-811.219120	431.072555	99.822845	-774.093836	501.123436	44.733731	-728.448051	473.635680	34.770539	-903.121917	388.639774	49.586740	-902.536898	
147	0.730000	349.892162	1627.988572	-778.743486	205.395191	1313.081521	-647.048272	489.164057	1308.005721	-860.581161	296.442291	1301.284430	-831.087847	179.406482	892.423290	-761.530192	356.364235	893.307624	-915.662773	359.601559	910.805836	-663.348613	436.255070	905.878328	-722.105175	397.928195	908.342028	-692.726844	209.560892	536.599664	-758.269818	212.643867	447.790038	-637.856402	322.952549	424.277471	-701.272208	236.874238	379.266806	-696.042377	224.579059	86.610564	-617.175417	276.539445	102.682600	-684.260341	292.083927	48.011815	-599.022194	143.014787	32.754882	-694.633039	165.460688	55.405749	-758.127956	358.414047	528.219312	-856.630279	485.668138	441.735321	-834.571993	395.518567	423.404477	-749.721589	433.865415	375.426997	-827.928720	505.251502	89.713226	-811.221136	431.068995	99.824541	-774.097866	501.123874	44.736633	-728.447067	473.638475	34.775367	-903.126154	388.647842	49.591380	-902.544906	
148	0.735000	349.883689	1627.988501	-778.781189	205.386282	1313.089400	-647.073778	489.158918	1307.997237	-860.593606	296.441398	1301.277089	-831.105001	179.403307	892.427593	-761.536300	356.362994	893.301092	-915.662659	359.603799	910.808541	-663.350798	436.258153	905.883892	-722.102269	397.930971	908.346054	-692.726444	209.555585	536.602331	-758.271797	212.643835	447.790837	-637.861765	322.950195	424.279690	-701.272905	236.872924	379.267026	-696.045019	224.582943	86.618110	-617.175257	276.539006	102.670802	-684.259266	292.087260	48.020072	-599.026546	143.015583	32.759528	-694.639508	165.458587	55.408722	-758.131211	358.419406	528.214767	-856.632955	485.666432	441.732366	-834.571897	395.514188	423.405240	-749.725875	433.866918	375.415754	-827.926464	505.254002	89.715421	-811.223111	431.063990	99.820584	-774.101218	501.122485	44.738504	-728.445925	473.638088	34.779675	-903.127570	388.655813	49.598079	-902.552355	
149	0.740000	349.876306	1627.989233	-778.818583	205.379399	1313.097993	-647.099905	489.154604	1307.989144	-860.607069	296.440187	1301.272857	-831.125487	179.401668	892.429629	-761.541598	356.362414	893.296447	-915.663133	359.605946	910.812272	-663.353573	436.260880	905.891036	-722.100240	397.933519	908.351398	-692.726816	209.550551	536.604490	-758.270786	212.645511	447.787437	-637.861662	322.949656	424.277980	-701.270348	236.873861	379.263765	-696.042432	224.584407	86.623802	-617.171501	276.539896	102.662737	-684.260190	292.090423	48.028703	-599.028990	143.017854	32.760700	-694.642817	165.458761	55.407469	-758.131350	358.423825	528.211428	-856.634470	485.666073	441.728513	-834.572555	395.513268	423.403058	-749.727633	433.868688	375.406007	-827.923843	505.256175	89.715759	-811.223534	431.059513	99.814615	-774.103945	501.120114	44.737732	-728.446467	473.634911	34.781097	-903.124560	388.660732	49.604818	-902.555594	
